<?xml version="1.0" encoding="UTF-8" standalone="no"?>
<svg width="30px" height="30px" viewBox="0 0 265 265" version="1.1" xmlns="http://www.w3.org/2000/svg" xmlns:xlink="http://www.w3.org/1999/xlink">
    <!-- Generator: Sketch 3.6.1 (26313) - http://www.bohemiancoding.com/sketch -->
    <title>p4-icon-vector-purple</title>
    <desc>Created with Sketch.</desc>
    <defs></defs>
    <g id="Page-1" stroke="none" stroke-width="1" fill="none" fill-rule="evenodd">
        <g id="p4-icon-vector">
            <g id="XMLID_1_">
                <g id="Group">
                    <path d="M263.74,32.06 C263.74,32.06 265.26,204.5 263.74,230.06 C261.75,263.21 230.74,264.06 230.74,264.06 L80.74,264.06 L139.74,183.06 L153.74,183.06 L153.74,250.06 L175.74,250.06 L175.74,183.06 L211.74,183.06 L211.74,161.06 L175.74,161.06 L175.74,134.06 L139.74,183.06 L124.11,183.06 L124.14,183 L123.77,183 L143.74,146.06 L92.74,151.06 L175.74,46.06 L175.74,58.06 L211.71,0.11 C214.71,0.11 219.96,0.09 228.74,0.06 C260.94,-0.06 263.74,32.06 263.74,32.06 L263.74,32.06 Z M175.74,126.06 L175.74,60.06 L131.74,131.06 L175.74,126.06 L175.74,126.06 Z" id="Shape" fill="#8A00A3"></path>
                    <path d="M211.74,161.06 L211.74,183.06 L175.74,183.06 L175.74,250.06 L153.74,250.06 L153.74,183.06 L139.74,183.06 L175.74,134.06 L175.74,161.06 L211.74,161.06 Z" id="Shape" fill="#FFFFFF"></path>
                    <path id="Shape" fill="#FFFFFF" d="M211.74,0.06 L211.71,0.11 L211.06,0.11 L211.09,0.07 C211.48,0.06 211.74,0.06 211.74,0.06 L211.74,0.06 Z"></path>
                    <path d="M211.71,0.11 L175.74,58.06 L175.74,46.06 L176.14,45 L211.06,0.11 C211.26,0.11 211.48,0.11 211.71,0.11 L211.71,0.11 Z" id="Shape" fill="#FFFFFF"></path>
                    <path d="M211.14,0 L211.09,0.07 C209.41,0.08 205.43,0.12 211.06,0.11 L176.14,45 L176.14,10 L43.14,183 L123.77,183 L123.74,183.06 L124.11,183.06 L79.49,263.37 L79.14,264 L35.14,264 C35.14,264 -0.14,261.86 0.14,226 C0.62,167.04 0.23,70.96 0.14,31 C4.76,4.28 22.87,1.2 34.14,0 L211.14,0 L211.14,0 Z" id="Shape" fill="#8A00A3"></path>
                    <path id="Shape" fill="#FFFFFF" d="M211.09,0.07 L211.06,0.11 C205.43,0.12 209.41,0.08 211.09,0.07 L211.09,0.07 Z"></path>
                    <path d="M176.14,10 L176.14,45 L175.74,46.06 L92.74,151.06 L143.74,146.06 L123.77,183 L43.14,183 L176.14,10 Z" id="Shape" fill="#FFFFFF"></path>
                    <path d="M175.74,60.06 L175.74,126.06 L131.74,131.06 L175.74,60.06 Z" id="Shape" fill="#FFFFFF"></path>
                    <path d="M139.74,183.06 L80.74,264.06 L79.49,263.37 L124.11,183.06 L139.74,183.06 Z" id="Shape" fill="#FFFFFF"></path>
                    <path id="Shape" fill="#FFFFFF" d="M124.14,183 L124.11,183.06 L123.74,183.06 L123.77,183 L124.14,183 Z"></path>
                </g>
            </g>
        </g>
    </g>
</svg>